<svg width="200" height="50" viewBox="0 0 200 50" fill="none" xmlns="http://www.w3.org/2000/svg">
<path d="M22.1626 12.7478C27.2667 12.7478 31.6992 16.1729 32.7065 20.8741L33.2774 23.6276L36.266 23.8291C39.3217 23.997 41.7059 26.4147 41.7059 29.2689C41.7059 32.2911 39.0531 34.776 35.8294 34.776L10.4433 34.776C6.11154 34.776 2.61926 31.4852 2.61926 27.4221C2.61926 23.6612 5.60784 20.5047 9.57023 20.1353L11.6522 19.9338L12.626 18.1877C14.5064 14.8297 18.1666 12.7478 22.1626 12.7478Z" fill="white"/>
<path d="M50.3694 24.2993C50.3694 22.2845 50.7052 20.4712 51.3768 18.8594C52.0484 17.2476 52.9886 15.8372 54.1975 14.6955C55.4063 13.5538 56.8167 12.6808 58.4621 12.0763C60.1075 11.4719 61.9208 11.1697 63.8684 11.1697C65.816 11.1697 67.6293 11.4719 69.2747 12.0763C70.9201 12.6808 72.364 13.5538 73.5393 14.6955C74.7481 15.8372 75.6884 17.214 76.36 18.8594C77.0316 20.4712 77.3673 22.2845 77.3673 24.2993C77.3673 26.3141 77.0316 28.1274 76.36 29.7392C75.6884 31.351 74.7481 32.7613 73.5393 33.903C72.3304 35.0447 70.9201 35.9178 69.2747 36.5222C67.6293 37.1267 65.816 37.4289 63.8684 37.4289C61.9208 37.4289 60.1075 37.1267 58.4621 36.5222C56.8167 35.9178 55.3727 35.0447 54.1975 33.903C52.9886 32.7613 52.0484 31.3846 51.3768 29.7392C50.7052 28.1274 50.3694 26.3141 50.3694 24.2993ZM56.1115 24.2993C56.1115 25.4746 56.2794 26.5491 56.6488 27.5229C57.0181 28.4967 57.5218 29.3362 58.227 30.075C58.8986 30.7801 59.7381 31.351 60.6783 31.754C61.6185 32.1569 62.6931 32.3584 63.8684 32.3584C65.0437 32.3584 66.1182 32.1569 67.0584 31.754C67.9987 31.351 68.8381 30.7801 69.5097 30.075C70.1813 29.3698 70.7186 28.4967 71.088 27.5229C71.4573 26.5491 71.6252 25.4746 71.6252 24.2993C71.6252 23.1576 71.4573 22.083 71.088 21.0756C70.7186 20.1018 70.2149 19.2288 69.5097 18.5236C68.8381 17.8184 67.9987 17.2476 67.0584 16.8446C66.1182 16.4417 65.0437 16.2402 63.8684 16.2402C62.6931 16.2402 61.6185 16.4417 60.6783 16.8446C59.7381 17.2476 58.8986 17.8184 58.227 18.5236C57.5554 19.2288 57.0181 20.1018 56.6488 21.0756C56.2794 22.083 56.1115 23.1576 56.1115 24.2993Z" fill="#38A6DE"/>
<path d="M77.8041 19.6317L82.9082 19.6317L82.9082 21.9487L82.9753 21.9487C83.1432 21.6129 83.3783 21.2771 83.6805 20.9749C83.9827 20.6391 84.3521 20.3369 84.7886 20.1018C85.2252 19.8332 85.6953 19.6317 86.2325 19.4638C86.7698 19.2959 87.3742 19.2288 88.0123 19.2288C89.3554 19.2288 90.43 19.4302 91.2695 19.8332C92.109 20.2361 92.747 20.807 93.1835 21.5457C93.6536 22.2845 93.9558 23.124 94.1237 24.1314C94.2916 25.1052 94.3588 26.1797 94.3588 27.355L94.3588 36.8245L89.0532 36.8245L89.0532 28.4296C89.0532 27.9259 89.0196 27.4222 88.9861 26.8849C88.9525 26.3476 88.8517 25.8775 88.6839 25.4074C88.516 24.9709 88.2473 24.6015 87.8779 24.2993C87.5086 24.0306 87.0049 23.8627 86.2997 23.8627C85.6281 23.8627 85.0573 23.9971 84.6543 24.2321C84.2514 24.4672 83.9156 24.803 83.6805 25.2059C83.4454 25.6089 83.3111 26.079 83.244 26.6163C83.1768 27.12 83.1432 27.6908 83.1432 28.2281L83.1432 36.7909L77.8377 36.7909L77.8377 19.6317L77.8041 19.6317Z" fill="#38A6DE"/>
<path d="M111.686 33.8359C110.846 34.9104 109.772 35.7499 108.462 36.3544C107.153 36.9588 105.809 37.2274 104.433 37.2274C103.123 37.2274 101.881 37.0259 100.705 36.5894C99.53 36.1529 98.5226 35.5484 97.6495 34.7761C96.7765 34.0038 96.1049 33.03 95.6012 31.9219C95.0975 30.8137 94.8624 29.5713 94.8624 28.1945C94.8624 26.8178 95.0975 25.5753 95.6012 24.4672C96.1049 23.3591 96.7765 22.4188 97.6495 21.6129C98.5226 20.8406 99.53 20.2026 100.705 19.7996C101.881 19.3631 103.123 19.1616 104.433 19.1616C105.641 19.1616 106.783 19.3631 107.757 19.7996C108.764 20.2362 109.604 20.8406 110.309 21.6129C111.014 22.4188 111.551 23.3591 111.921 24.4672C112.29 25.5753 112.492 26.8178 112.492 28.1945L112.492 29.8399L100.202 29.8399C100.403 30.8473 100.873 31.6532 101.578 32.2576C102.284 32.8621 103.157 33.1643 104.198 33.1643C105.071 33.1643 105.809 32.9628 106.414 32.5934C107.018 32.1905 107.556 31.7204 107.992 31.0824L111.686 33.8359ZM107.22 26.2805C107.253 25.3738 106.951 24.6351 106.347 23.9971C105.742 23.3591 104.936 23.0568 103.962 23.0568C103.358 23.0568 102.854 23.1576 102.418 23.3255C101.981 23.527 101.578 23.762 101.276 24.0642C100.974 24.3665 100.705 24.7022 100.537 25.1052C100.369 25.5082 100.269 25.9111 100.235 26.3141L107.22 26.3141L107.22 26.2805Z" fill="#38A6DE"/>
<path d="M136.232 33.1641C135.796 33.8021 135.292 34.4065 134.654 34.9774C134.016 35.5482 133.311 36.0183 132.505 36.4549C131.699 36.8578 130.826 37.1936 129.919 37.4287C128.979 37.6637 128.005 37.7981 126.964 37.7981C125.118 37.7981 123.371 37.4623 121.793 36.8243C120.215 36.1527 118.838 35.246 117.663 34.0707C116.488 32.8954 115.581 31.5187 114.909 29.9069C114.238 28.295 113.936 26.5489 113.936 24.6349C113.936 22.7208 114.271 20.9747 114.909 19.3629C115.581 17.7511 116.488 16.3743 117.663 15.199C118.838 14.0237 120.215 13.1171 121.793 12.4455C123.371 11.7739 125.118 11.4717 126.964 11.4717C128.509 11.4717 130.087 11.7739 131.632 12.3783C133.177 12.9828 134.52 13.9901 135.628 15.4341L133.412 17.0795C133.143 16.6765 132.807 16.2736 132.337 15.8706C131.901 15.4676 131.363 15.1319 130.792 14.7961C130.222 14.4938 129.584 14.2588 128.946 14.0573C128.274 13.8558 127.636 13.7887 126.964 13.7887C125.353 13.7887 123.909 14.0909 122.666 14.6617C121.39 15.2662 120.316 16.0385 119.443 17.0459C118.57 18.0197 117.898 19.195 117.394 20.5046C116.924 21.8142 116.689 23.1909 116.689 24.6349C116.689 26.0788 116.924 27.4556 117.394 28.7652C117.864 30.0748 118.536 31.2165 119.443 32.2238C120.316 33.1977 121.39 34.0036 122.666 34.608C123.942 35.2124 125.386 35.4811 126.964 35.4811C127.636 35.4811 128.274 35.4139 128.912 35.3132C129.55 35.1789 130.188 35.011 130.826 34.7087C131.464 34.4401 132.035 34.0371 132.606 33.567C133.143 33.0969 133.68 32.4925 134.15 31.7537L136.232 33.1641Z" fill="white"/>
<path d="M139.355 37.093L137.038 37.093L137.038 10.3972L139.355 10.3972L139.355 37.093Z" fill="white"/>
<path d="M158.496 28.8325C158.496 30.0749 158.294 31.2502 157.858 32.2912C157.421 33.3657 156.817 34.2724 156.044 35.0447C155.272 35.817 154.332 36.4215 153.257 36.858C152.183 37.2945 151.007 37.496 149.698 37.496C148.422 37.496 147.246 37.2945 146.172 36.858C145.097 36.4215 144.191 35.817 143.385 35.0447C142.612 34.2724 142.008 33.3321 141.571 32.2912C141.135 31.2166 140.933 30.0749 140.933 28.8325C140.933 27.59 141.135 26.4147 141.571 25.3738C142.008 24.2992 142.612 23.3926 143.385 22.6203C144.157 21.8479 145.097 21.2435 146.172 20.807C147.246 20.3704 148.422 20.1689 149.698 20.1689C151.007 20.1689 152.183 20.3704 153.257 20.807C154.332 21.2435 155.238 21.8479 156.044 22.6203C156.817 23.3926 157.421 24.3328 157.858 25.3738C158.294 26.4483 158.496 27.59 158.496 28.8325ZM155.944 28.8325C155.944 27.9258 155.809 27.0528 155.507 26.2468C155.205 25.4409 154.802 24.7358 154.265 24.1649C153.727 23.5605 153.056 23.1239 152.317 22.7546C151.545 22.4188 150.672 22.2509 149.731 22.2509C148.758 22.2509 147.884 22.4188 147.146 22.7546C146.373 23.0904 145.735 23.5605 145.198 24.1649C144.661 24.7693 144.258 25.4409 143.956 26.2468C143.653 27.0528 143.519 27.8922 143.519 28.8325C143.519 29.7391 143.653 30.6122 143.956 31.4181C144.258 32.224 144.661 32.9292 145.198 33.5C145.735 34.1045 146.373 34.541 147.146 34.9104C147.918 35.2462 148.791 35.4141 149.731 35.4141C150.705 35.4141 151.578 35.2462 152.317 34.9104C153.089 34.5746 153.727 34.1045 154.265 33.5C154.802 32.8956 155.238 32.224 155.507 31.4181C155.809 30.6122 155.944 29.7727 155.944 28.8325Z" fill="white"/>
<path d="M171.491 37.0929C171.457 36.6564 171.424 36.2199 171.39 35.7833C171.39 35.3468 171.357 34.9103 171.357 34.4737L171.323 34.4737C171.054 34.9103 170.719 35.3468 170.349 35.7162C169.946 36.0855 169.51 36.4213 169.006 36.69C168.502 36.9586 167.999 37.1601 167.428 37.328C166.891 37.4959 166.32 37.563 165.782 37.563C163.667 37.563 162.089 36.9922 161.081 35.8841C160.074 34.7759 159.57 33.1641 159.57 31.0822L159.57 20.5718L161.887 20.5718L161.887 29.739C161.887 30.6456 161.954 31.4851 162.089 32.1903C162.223 32.8955 162.458 33.4999 162.827 33.97C163.163 34.4401 163.633 34.8095 164.204 35.0781C164.775 35.3132 165.514 35.4475 166.387 35.4475C166.521 35.4475 166.823 35.4139 167.361 35.3132C167.898 35.2125 168.469 34.9438 169.073 34.5409C169.678 34.1043 170.215 33.4663 170.685 32.6268C171.155 31.7874 171.39 30.6121 171.39 29.101L171.39 20.6054L173.707 20.6054L173.707 33.4999C173.707 33.9364 173.741 34.5073 173.774 35.2125C173.808 35.8841 173.842 36.5557 173.909 37.1601L171.491 37.1601L171.491 37.0929Z" fill="white"/>
<path d="M192.512 37.093L190.195 37.093L190.195 34.3394L190.128 34.3394C189.758 34.9103 189.288 35.3804 188.784 35.7834C188.281 36.1863 187.71 36.5221 187.173 36.7572C186.602 37.0258 186.031 37.1937 185.426 37.328C184.822 37.4623 184.251 37.4959 183.714 37.4959C182.404 37.4959 181.229 37.2944 180.154 36.8579C179.08 36.4214 178.173 35.8169 177.367 35.0446C176.595 34.2723 175.991 33.3321 175.554 32.2911C175.117 31.2165 174.916 30.0748 174.916 28.8324C174.916 27.59 175.117 26.4147 175.554 25.3737C175.991 24.2992 176.595 23.3925 177.367 22.6202C178.14 21.8478 179.08 21.2434 180.154 20.8069C181.229 20.3703 182.404 20.1689 183.714 20.1689C184.251 20.1689 184.822 20.236 185.426 20.3368C186.031 20.4711 186.602 20.639 187.173 20.9076C187.743 21.1763 188.281 21.5121 188.784 21.8814C189.288 22.2844 189.758 22.7545 190.128 23.3253L190.195 23.3253L190.195 10.3972L192.512 10.3972L192.512 37.093ZM177.434 28.8324C177.434 29.739 177.569 30.6121 177.871 31.418C178.173 32.2239 178.576 32.9291 179.113 33.5C179.651 34.1044 180.322 34.5409 181.061 34.9103C181.833 35.2461 182.706 35.414 183.647 35.414C184.587 35.414 185.46 35.2461 186.266 34.9103C187.072 34.5745 187.777 34.1044 188.381 33.5C188.986 32.8955 189.422 32.2239 189.758 31.418C190.094 30.6121 190.262 29.7726 190.262 28.8324C190.262 27.9257 190.094 27.0527 189.758 26.2468C189.422 25.4409 188.952 24.7357 188.381 24.1648C187.777 23.5604 187.105 23.1239 186.266 22.7545C185.46 22.4187 184.587 22.2508 183.647 22.2508C182.673 22.2508 181.8 22.4187 181.061 22.7545C180.289 23.0903 179.651 23.5604 179.113 24.1648C178.576 24.7693 178.14 25.4409 177.871 26.2468C177.569 27.0527 177.434 27.9257 177.434 28.8324Z" fill="white"/>
<path d="M194.56 13.2515C194.56 12.7478 194.694 12.2441 194.93 11.8076C195.165 11.371 195.5 11.0352 195.903 10.7666C196.34 10.498 196.776 10.3972 197.28 10.3972C197.784 10.3972 198.22 10.5315 198.657 10.7666C199.093 11.0352 199.396 11.371 199.631 11.8076C199.866 12.2441 200 12.7142 200 13.2515C200 13.7552 199.866 14.2589 199.631 14.6954C199.396 15.1319 199.06 15.4677 198.657 15.7364C198.254 16.005 197.784 16.1057 197.28 16.1057C196.776 16.1057 196.34 15.9714 195.903 15.7364C195.5 15.4677 195.165 15.1319 194.93 14.6954C194.661 14.2253 194.56 13.7552 194.56 13.2515ZM199.496 13.2515C199.496 12.8149 199.396 12.4456 199.194 12.0762C198.993 11.7068 198.724 11.4382 198.388 11.2031C198.052 11.0016 197.649 10.8673 197.247 10.8673C196.844 10.8673 196.474 10.9681 196.105 11.1695C195.769 11.371 195.5 11.6732 195.299 12.0426C195.097 12.412 194.997 12.8149 194.997 13.2515C194.997 13.688 195.097 14.091 195.299 14.4603C195.5 14.8297 195.769 15.1319 196.105 15.3334C196.441 15.5349 196.844 15.6356 197.247 15.6356C197.649 15.6356 198.019 15.5349 198.388 15.2998C198.724 15.0984 199.026 14.7961 199.194 14.4268C199.396 14.0574 199.496 13.6544 199.496 13.2515ZM196.709 13.5201L196.709 14.7961L196.138 14.7961L196.138 11.5389L197.213 11.5389C197.616 11.5389 197.918 11.6397 198.12 11.8076C198.355 11.9755 198.455 12.2105 198.455 12.5463C198.455 12.8485 198.288 13.0836 197.985 13.2179C198.153 13.2851 198.254 13.3858 198.321 13.5537C198.388 13.688 198.422 13.8559 198.422 14.091C198.422 14.2924 198.422 14.4603 198.422 14.5275C198.422 14.6282 198.455 14.6954 198.489 14.729L198.489 14.7961L197.885 14.7961C197.851 14.6954 197.851 14.4603 197.851 14.0574C197.851 13.8559 197.817 13.7216 197.717 13.6544C197.616 13.5537 197.482 13.5201 197.28 13.5201L196.709 13.5201ZM196.709 13.0164L197.247 13.0164C197.414 13.0164 197.582 12.9828 197.683 12.8821C197.817 12.8149 197.851 12.6806 197.851 12.5463C197.851 12.3784 197.817 12.2441 197.717 12.1769C197.616 12.1098 197.448 12.0762 197.213 12.0762L196.676 12.0762L196.676 13.0164L196.709 13.0164Z" fill="white"/>
<path d="M22.0284 12.8486C27.1325 12.8486 31.5314 16.2402 32.5388 20.9749L33.1096 23.7284L36.0982 23.9299C39.154 24.0978 41.5045 26.5155 41.5045 29.3362C41.5045 32.3584 38.8853 34.8432 35.6617 34.8432L10.3427 34.8432C6.04452 34.8432 2.55225 31.5524 2.55225 27.5229C2.55225 23.762 5.54083 20.6391 9.50322 20.2361L11.5851 20.0347L12.559 18.2885C14.3723 14.9306 17.9988 12.8486 22.0284 12.8486Z" fill="white"/>
<path d="M9.06648 16.55C11.4506 12.2707 16.2189 9.36211 21.6924 9.36211C28.6098 9.36211 34.3519 13.9757 35.6615 20.0938C39.0866 20.3278 42.0416 22.2334 43.4855 24.9748C43.4855 24.908 43.4855 24.8745 43.4855 24.8077C43.4855 12.8056 33.7139 3.0769 21.6588 3.0769C10.4097 3.11034 1.10813 11.6355 1.64324e-10 22.6012C1.6454 19.3248 5.03693 16.9512 9.06648 16.55Z" fill="#38A6DE"/>
<path d="M10.3092 37.8128C7.18631 37.8128 4.36562 36.6427 2.28369 34.7371C5.91028 41.7578 13.2306 46.5385 21.6927 46.5385C29.4496 46.5385 36.2662 42.4933 40.1279 36.4087C38.6504 37.3113 36.8706 37.8128 34.9902 37.8128L10.3092 37.8128Z" fill="#38A6DE"/>
</svg>
