<svg width="18" height="18" viewBox="0 0 18 18" fill="none" xmlns="http://www.w3.org/2000/svg">
<g clip-path="url(#clip0_134_9708)">
<path d="M8.84984 10.8001C7.10006 10.8021 5.42244 11.498 4.18523 12.7354C2.94785 13.9728 2.25194 15.6504 2.24995 17.4C2.24982 17.5591 2.31303 17.7118 2.42554 17.8244C2.53817 17.9369 2.69085 18.0001 2.84996 18H14.8501C15.0092 18.0001 15.1619 17.9369 15.2745 17.8244C15.387 17.7118 15.4502 17.5591 15.4501 17.4C15.4481 15.6502 14.7522 13.9726 13.5148 12.7354C12.2774 11.498 10.5998 10.8021 8.85019 10.8001H8.84984ZM3.48305 16.8002C3.68167 15.0245 4.7456 13.462 6.32505 12.6265C7.90461 11.7912 9.7948 11.7912 11.3744 12.6265C12.9538 13.4618 14.0177 15.0244 14.2164 16.8002H3.48305ZM12.4499 6.00006C12.4499 5.04526 12.0706 4.12958 11.3954 3.45445C10.7203 2.77933 9.80464 2.40002 8.84984 2.40002C7.89505 2.40002 6.97937 2.77929 6.30424 3.45445C5.62912 4.12962 5.24981 5.04526 5.24981 6.00006C5.24981 6.95485 5.62908 7.87053 6.30424 8.54566C6.9794 9.22078 7.89505 9.60009 8.84984 9.60009C9.80437 9.59902 10.7194 9.21945 11.3942 8.54446C12.0693 7.86957 12.4488 6.95458 12.4499 6.00006ZM6.44982 6.00006C6.44982 5.3635 6.70268 4.75304 7.15282 4.30303C7.60283 3.85289 8.21329 3.60003 8.84984 3.60003C9.4864 3.60003 10.0969 3.85289 10.5469 4.30303C10.997 4.75304 11.2499 5.3635 11.2499 6.00006C11.2499 6.63661 10.997 7.24707 10.5469 7.69708C10.0969 8.14722 9.4864 8.40008 8.84984 8.40008C8.21353 8.39941 7.60348 8.14642 7.15347 7.69643C6.70347 7.24644 6.45047 6.63637 6.44982 6.00006ZM15.4499 5.40005V6.60006C15.4491 6.81863 15.3884 7.03279 15.2745 7.21934C15.1605 7.4059 14.9976 7.55764 14.8036 7.65823C14.6951 8.36446 14.3379 9.00879 13.7963 9.47484C13.2547 9.94089 12.5644 10.1981 11.8499 10.2001C11.6354 10.2001 11.4374 10.0857 11.3302 9.90006C11.2231 9.71443 11.2231 9.48568 11.3302 9.30005C11.4374 9.11443 11.6354 9.00005 11.8499 9.00005C12.2561 8.99911 12.65 8.8609 12.9677 8.60778C13.2853 8.35466 13.5082 8.00147 13.5998 7.60584C13.2576 7.38566 13.0506 7.0069 13.0499 6.60003V5.40002C13.0503 5.0739 13.184 4.76199 13.4201 4.53697C13.0044 3.23664 12.0546 2.17511 10.8083 1.61782C9.56209 1.06067 8.13761 1.06067 6.89149 1.61782C5.64526 2.17511 4.69543 3.23664 4.27971 4.53697C4.51583 4.76197 4.64949 5.07389 4.6499 5.40002V6.60003C4.6499 7.02874 4.42115 7.42491 4.04989 7.63931C3.67865 7.85359 3.22113 7.85359 2.84988 7.63931C2.47863 7.42488 2.24988 7.02871 2.24988 6.60003V5.40002C2.25082 5.14193 2.33506 4.89094 2.49015 4.68457C2.64524 4.47832 2.86287 4.32751 3.11052 4.25493C3.48444 3.02399 4.24422 1.94584 5.27764 1.17978C6.31119 0.413558 7.56355 0 8.8499 0C10.1362 0 11.3887 0.413558 12.4222 1.17978C13.4556 1.94587 14.2154 3.02399 14.5893 4.25493C14.8369 4.32752 15.0545 4.47833 15.2096 4.68457C15.3647 4.89095 15.449 5.14194 15.4499 5.40002L15.4499 5.40005Z" fill="white"/>
</g>
<defs>
<clipPath id="clip0_134_9708">
<rect width="18" height="18" fill="white"/>
</clipPath>
</defs>
</svg>
