<svg width="14" height="14" viewBox="0 0 14 14" fill="none" xmlns="http://www.w3.org/2000/svg">
<path d="M3.7565 1.16669H10.2373C12.314 1.16669 12.8332 1.68585 12.8332 3.75669V7.44919C12.8332 9.52585 12.314 10.0392 10.2432 10.0392H3.7565C1.68567 10.045 1.1665 9.52585 1.1665 7.45502V3.75669C1.1665 1.68585 1.68567 1.16669 3.7565 1.16669Z" stroke="#8083A3" stroke-width="1.5" stroke-linecap="round" stroke-linejoin="round"/>
<path d="M7 10.045V12.8333" stroke="#8083A3" stroke-width="1.5" stroke-linecap="round" stroke-linejoin="round"/>
<path d="M7.11664 5.02391C7.71716 5.02391 8.20398 4.55218 8.20398 3.97028C8.20398 3.38839 7.71716 2.91669 7.11664 2.91669C6.51612 2.91669 6.0293 3.38839 6.0293 3.97028C6.0293 4.55218 6.51612 5.02391 7.11664 5.02391Z" stroke="#8083A3" stroke-width="1.2" stroke-linecap="round" stroke-linejoin="round"/>
<path d="M8.98333 8.16664C8.98333 7.35269 8.148 6.6925 7.11667 6.6925C6.08533 6.6925 5.25 7.35269 5.25 8.16664" stroke="#8083A3" stroke-width="1.2" stroke-linecap="round" stroke-linejoin="round"/>
<path d="M4.375 12.8333H9.625" stroke="#8083A3" stroke-width="1.5" stroke-linecap="round" stroke-linejoin="round"/>
</svg>
