<svg width="19" height="19" viewBox="0 0 19 19" fill="none" xmlns="http://www.w3.org/2000/svg">
<path d="M13.1006 0C13.1855 1.22955 12.7845 2.21958 12.1929 2.94577C11.3227 4.01383 10.0401 4.51175 9.2838 4.36368C9.14154 3.51047 9.49429 2.42136 10.2118 1.54347C10.8875 0.716755 11.8866 0.0776636 13.1006 0ZM9.44639 5.46004C10.3094 5.46004 11.2439 4.58542 12.7827 4.58542C13.4762 4.58542 15.4639 4.79518 16.5599 6.48056C16.1244 6.79593 14.5159 7.80846 14.5159 10.1126C14.5159 12.8276 16.7148 13.7671 17.0483 13.9392C16.9282 14.3877 16.3483 15.9435 15.3706 17.1618C15.0679 17.5389 14.1588 18.9862 12.8015 18.9862C11.5687 18.9862 11.0998 18.2234 9.67757 18.2234C8.05752 18.2234 7.97986 19 6.40408 19C6.07311 19 5.58753 18.8505 5.20284 18.5119C3.83647 17.3088 1.5835 14.1994 1.5835 10.3213C1.5835 6.48927 4.12498 4.64965 6.35364 4.64965C7.75521 4.64929 8.55471 5.46004 9.44639 5.46004Z" fill="black"/>
</svg>
