<svg width="19" height="19" viewBox="0 0 19 19" fill="none" xmlns="http://www.w3.org/2000/svg">
<path d="M18.5578 9.67772C18.5578 8.8993 18.4946 8.33126 18.3579 7.74219H9.46912V11.2556H14.6866C14.5815 12.1287 14.0135 13.4436 12.7511 14.3272L12.7334 14.4448L15.5439 16.6221L15.7386 16.6415C17.5269 14.99 18.5578 12.56 18.5578 9.67772Z" fill="#4285F4"/>
<path d="M9.46877 18.9348C12.0249 18.9348 14.1708 18.0932 15.7383 16.6416L12.7508 14.3273C11.9513 14.8848 10.8783 15.274 9.46877 15.274C6.96519 15.274 4.84031 13.6225 4.08285 11.3398L3.97182 11.3493L1.04945 13.6109L1.01123 13.7172C2.56807 16.8098 5.76594 18.9348 9.46877 18.9348Z" fill="#34A853"/>
<path d="M4.08145 11.3397C3.88158 10.7506 3.76592 10.1194 3.76592 9.46727C3.76592 8.81504 3.88158 8.1839 4.07093 7.59483L4.06564 7.46937L1.10664 5.17139L1.00983 5.21744C0.368179 6.50081 0 7.94198 0 9.46727C0 10.9926 0.368179 12.4337 1.00983 13.717L4.08145 11.3397Z" fill="#FBBC05"/>
<path d="M9.46877 3.66069C11.2465 3.66069 12.4457 4.4286 13.1295 5.07032L15.8014 2.46152C14.1604 0.936221 12.0249 0 9.46877 0C5.76594 0 2.56807 2.12488 1.01123 5.21753L4.07233 7.59492C4.84031 5.31224 6.96519 3.66069 9.46877 3.66069Z" fill="#EB4335"/>
</svg>
